<svg xmlns="http://www.w3.org/2000/svg" viewBox="0 0 24 24">
  <path fill="currentColor" d="M12 21.35l-1.45-1.32C5.4 15.36 2 12.28 2 8.5 2 5.42 4.42 3 7.5 3c1.74 0 3.41.81 4.5 2.09C13.09 3.81 14.76 3 16.5 3 19.58 3 22 5.42 22 8.5c0 3.78-3.4 6.86-8.55 11.54L12 21.35z"/>
  <path fill="currentColor" d="M15.5 7.5c-.3 0-.6.1-.9.3L12 9.7 9.5 7.8c-.3-.2-.6-.3-.9-.3-1 0-1.8.8-1.8 1.8v3.2c0 1 .8 1.8 1.8 1.8h.5c.2 0 .4.2.4.4s.2.4.4.4H9c.3 0 .5-.2.5-.4s.2-.4.4-.4h2.2c.3 0 .5.2.5.4s.2.4.4.4h.9c.3 0 .5-.2.5-.4s.2-.4.4-.4h.5c1 0 1.8-.8 1.8-1.8V9.3c0-1-.8-1.8-1.8-1.8zM12 12.2c-.7 0-1.3-.6-1.3-1.3s.6-1.3 1.3-1.3 1.3.6 1.3 1.3-.6 1.3-1.3 1.3z"/>
</svg>
